<svg width="279" height="193" viewBox="0 0 279 193" fill="none" xmlns="http://www.w3.org/2000/svg">
<path d="M239 113C239 86.4784 228.465 61.043 209.711 42.2893C190.957 23.5357 165.522 13 139 13C112.479 13 87.0432 23.5357 68.2896 42.2893C49.5359 61.0429 39.0003 86.4783 39.0003 113L139 168L239 113Z" fill="#6D4A2F"/>
<path d="M189 118.641C194.305 127.828 203.041 134.532 213.288 137.278C223.536 140.024 234.454 138.586 243.641 133.282C252.829 127.978 259.533 119.241 262.278 108.994C265.024 98.7466 263.587 87.8284 258.282 78.641L189 118.641Z" fill="#6D4A2F"/>
<path d="M20 78.641C14.6956 87.8284 13.2582 98.7466 16.0039 108.994C18.7497 119.241 25.4536 127.978 34.641 133.282C43.8283 138.586 54.7466 140.024 64.9937 137.278C75.2409 134.532 83.9777 127.828 89.282 118.641L20 78.641Z" fill="#6D4A2F"/>
<path d="M39.0003 113C39.0003 127.587 49.5362 141.576 68.2898 151.891C87.0434 162.205 112.479 168 139 168C165.522 168 190.958 162.205 209.711 151.891C228.465 141.576 239 127.587 239 113L139 168L39.0003 113Z" fill="#6D4A2F"/>
<path d="M159 20C159 31.0457 150.046 40 139 40C127.955 40 119 31.0457 119 20C119 8.9543 127.955 0 139 0C150.046 0 159 8.9543 159 20Z" fill="#6D4A2F"/>
<path d="M89.0003 44C89.0003 55.0457 80.0459 64 69.0003 64C57.9546 64 49.0003 55.0457 49.0003 44C49.0003 32.9543 57.9546 24 69.0003 24C80.0459 24 89.0003 32.9543 89.0003 44Z" fill="#6D4A2F"/>
<path d="M229 44C229 55.0457 220.046 64 209 64C197.955 64 189 55.0457 189 44C189 32.9543 197.955 24 209 24C220.046 24 229 32.9543 229 44Z" fill="#6D4A2F"/>
<path d="M139.5 193L102 149H177L139.5 193Z" fill="#6D4A2F"/>
<path d="M103.5 180L66 136H141L103.5 180Z" fill="#6D4A2F"/>
<path d="M175.5 180L138 136H213L175.5 180Z" fill="#6D4A2F"/>
<path d="M118.255 99.1544L126.74 107.64L98.456 135.924L89.9707 127.439L118.255 99.1544Z" fill="#F3F3F3"/>
<path fill-rule="evenodd" clip-rule="evenodd" d="M126.74 99.1544C133.77 106.184 145.167 106.184 152.196 99.1544C159.226 92.1249 159.226 80.728 152.196 73.6985C145.167 66.6691 133.77 66.6691 126.74 73.6985C119.711 80.728 119.711 92.1249 126.74 99.1544ZM118.255 107.64C129.971 119.355 148.966 119.355 160.681 107.64C172.397 95.9239 172.397 76.929 160.681 65.2132C148.966 53.4975 129.971 53.4975 118.255 65.2132C106.539 76.929 106.539 95.9239 118.255 107.64Z" fill="#F3F3F3"/>
</svg>
